<svg width="18" height="18" viewBox="0 0 18 18" fill="none" xmlns="http://www.w3.org/2000/svg">
<path d="M17.3083 14.2751C17.3083 14.5751 17.2416 14.8834 17.1 15.1834C16.9583 15.4834 16.775 15.7667 16.5333 16.0334C16.125 16.4834 15.675 16.8084 15.1666 17.0168C14.6666 17.2251 14.125 17.3334 13.5416 17.3334C12.6916 17.3334 11.7833 17.1334 10.825 16.7251C9.86663 16.3167 8.90829 15.7667 7.95829 15.0751C6.99996 14.3751 6.09163 13.6001 5.22496 12.7417C4.36663 11.8751 3.59163 10.9667 2.89996 10.0167C2.21663 9.06675 1.66663 8.11675 1.26663 7.17508C0.866626 6.22508 0.666626 5.31675 0.666626 4.45008C0.666626 3.88341 0.766626 3.34175 0.966626 2.84175C1.16663 2.33341 1.48329 1.86675 1.92496 1.45008C2.45829 0.925081 3.04163 0.666748 3.65829 0.666748C3.89163 0.666748 4.12496 0.716748 4.33329 0.816748C4.54996 0.916748 4.74163 1.06675 4.89163 1.28341L6.82496 4.00841C6.97496 4.21675 7.08329 4.40841 7.15829 4.59175C7.23329 4.76675 7.27496 4.94175 7.27496 5.10008C7.27496 5.30008 7.21663 5.50008 7.09996 5.69175C6.99163 5.88341 6.83329 6.08341 6.63329 6.28341L5.99996 6.94175C5.90829 7.03341 5.86663 7.14175 5.86663 7.27508C5.86663 7.34175 5.87496 7.40008 5.89163 7.46675C5.91663 7.53341 5.94163 7.58341 5.95829 7.63341C6.10829 7.90841 6.36663 8.26675 6.73329 8.70008C7.10829 9.13342 7.50829 9.57508 7.94163 10.0167C8.39163 10.4584 8.82496 10.8667 9.26663 11.2417C9.69996 11.6084 10.0583 11.8584 10.3416 12.0084C10.3833 12.0251 10.4333 12.0501 10.4916 12.0751C10.5583 12.1001 10.625 12.1084 10.7 12.1084C10.8416 12.1084 10.95 12.0584 11.0416 11.9667L11.675 11.3417C11.8833 11.1334 12.0833 10.9751 12.275 10.8751C12.4666 10.7584 12.6583 10.7001 12.8666 10.7001C13.025 10.7001 13.1916 10.7334 13.375 10.8084C13.5583 10.8834 13.75 10.9917 13.9583 11.1334L16.7166 13.0917C16.9333 13.2417 17.0833 13.4167 17.175 13.6251C17.2583 13.8334 17.3083 14.0417 17.3083 14.2751Z" fill="#010C80"/>
</svg>
