<svg width="20" height="20" viewBox="0 0 20 20" fill="none" xmlns="http://www.w3.org/2000/svg">
<path fill-rule="evenodd" clip-rule="evenodd" d="M10 0C7.28417 0 6.94374 0.0116655 5.87708 0.0599988C4.81249 0.108749 4.08541 0.277914 3.44958 0.524998C2.79208 0.780414 2.23416 1.1225 1.67875 1.67833C1.1225 2.23417 0.780421 2.79209 0.525004 3.44959C0.277921 4.08584 0.108339 4.8125 0.0600052 5.87708C0.0116719 6.94375 0 7.28417 0 10C0 12.7158 0.0116719 13.0563 0.0600052 14.1229C0.108755 15.1875 0.277921 15.9146 0.525004 16.5504C0.780421 17.2079 1.12251 17.7658 1.67834 18.3212C2.23417 18.8775 2.79208 19.2196 3.44958 19.4754C4.08583 19.7221 4.81249 19.8913 5.87708 19.94C6.94374 19.9883 7.28417 20 10 20C12.7158 20 13.0563 19.9883 14.1229 19.94C15.1875 19.8913 15.9146 19.7221 16.5504 19.475C17.2079 19.2196 17.7658 18.8775 18.3213 18.3217C18.8775 17.7658 19.2196 17.2079 19.4754 16.5504C19.7221 15.9142 19.8913 15.1875 19.94 14.1229C19.9883 13.0563 20 12.7158 20 10C20 7.28417 19.9883 6.94375 19.94 5.87708C19.8913 4.8125 19.7221 4.08542 19.475 3.44959C19.2196 2.79209 18.8775 2.23417 18.3217 1.67875C17.7658 1.1225 17.2079 0.780414 16.5504 0.524998C15.9142 0.277914 15.1875 0.108332 14.1229 0.0599988C13.0563 0.0116655 12.7158 0 10 0ZM10 1.80167C12.67 1.80167 12.9862 1.81209 14.0408 1.86C15.0158 1.90459 15.545 2.0675 15.8979 2.20458C16.3646 2.38583 16.6979 2.6025 17.0479 2.9525C17.3975 3.3025 17.6142 3.63583 17.7954 4.1025C17.9329 4.45458 18.0954 4.98417 18.14 5.95917C18.1879 7.01333 18.1983 7.33 18.1983 10C18.1983 12.67 18.1879 12.9862 18.14 14.0408C18.0954 15.0158 17.9325 15.545 17.7954 15.8979C17.6142 16.3646 17.3975 16.6979 17.0475 17.0479C16.6975 17.3975 16.3642 17.6142 15.8975 17.7954C15.5454 17.9329 15.0158 18.0954 14.0408 18.14C12.9867 18.1879 12.67 18.1983 10 18.1983C7.32958 18.1983 7.01333 18.1879 5.95917 18.14C4.98417 18.0954 4.455 17.9325 4.10208 17.7954C3.63542 17.6142 3.30208 17.3975 2.95208 17.0475C2.6025 16.6975 2.38583 16.3642 2.20458 15.8975C2.06708 15.5454 1.90458 15.0158 1.86 14.0408C1.81208 12.9867 1.80167 12.67 1.80167 10C1.80167 7.33 1.81208 7.01375 1.86 5.95917C1.90458 4.98417 2.06749 4.455 2.20458 4.10208C2.38583 3.63542 2.6025 3.30209 2.9525 2.95209C3.3025 2.6025 3.63584 2.38583 4.1025 2.20458C4.45459 2.06708 4.98417 1.90459 5.95917 1.86C7.01333 1.81209 7.33 1.80167 10 1.80167ZM10 4.865C7.16375 4.865 4.865 7.16375 4.865 10C4.865 12.8362 7.16375 15.135 10 15.135C12.8362 15.135 15.135 12.8362 15.135 10C15.135 7.16375 12.8362 4.865 10 4.865ZM10 13.3333C9.11594 13.3333 8.2681 12.9821 7.64297 12.357C7.01785 11.7319 6.66667 10.8841 6.66667 10C6.66667 9.11594 7.01785 8.2681 7.64297 7.64297C8.2681 7.01785 9.11594 6.66667 10 6.66667C10.8841 6.66667 11.7319 7.01785 12.357 7.64297C12.9821 8.2681 13.3333 9.11594 13.3333 10C13.3333 10.8841 12.9821 11.7319 12.357 12.357C11.7319 12.9821 10.8841 13.3333 10 13.3333ZM16.5379 4.66208C16.5379 4.98034 16.4115 5.28557 16.1864 5.51061C15.9614 5.73565 15.6562 5.86208 15.3379 5.86208C15.0196 5.86208 14.7144 5.73565 14.4894 5.51061C14.2643 5.28557 14.1379 4.98034 14.1379 4.66208C14.1379 4.34382 14.2643 4.0386 14.4894 3.81355C14.7144 3.58851 15.0196 3.46209 15.3379 3.46209C15.6562 3.46209 15.9614 3.58851 16.1864 3.81355C16.4115 4.0386 16.5379 4.34382 16.5379 4.66208Z" fill="#F4F5FF"/>
</svg>
