<svg width="20" height="18" viewBox="0 0 20 18" fill="none" xmlns="http://www.w3.org/2000/svg">
<path fill-rule="evenodd" clip-rule="evenodd" d="M19.5 18H15.3006V11.6721C15.3006 10.0161 14.6442 8.88525 13.1993 8.88525C12.0948 8.88525 11.4803 9.64845 11.1944 10.3837C11.0869 10.6475 11.1037 11.0151 11.1037 11.3827V18H6.94359C6.94359 18 6.99714 6.79095 6.94359 5.77215H11.1037V7.6914C11.3499 6.85215 12.679 5.6547 14.8001 5.6547C17.432 5.6547 19.5 7.4133 19.5 11.2009V18ZM2.73682 4.2426H2.70961C1.36925 4.2426 0.5 3.30795 0.5 2.1231C0.5 0.9153 1.39473 0 2.7623 0C4.12857 0 4.96889 0.91305 4.99523 2.1195C4.99523 3.30435 4.12857 4.2426 2.73682 4.2426ZM0.979318 5.77215H4.68259V18H0.979318V5.77215Z" fill="#F4F5FF"/>
</svg>
