<svg width="22" height="18" viewBox="0 0 22 18" fill="none" xmlns="http://www.w3.org/2000/svg">
<path fill-rule="evenodd" clip-rule="evenodd" d="M21.5 2.13075C20.7158 2.49813 19.8814 2.73945 19.0259 2.84625C19.9317 2.27121 20.6045 1.37851 20.9203 0.333C20.0771 0.861051 19.1507 1.23369 18.1829 1.43415C17.3993 0.55125 16.2789 0 15.0386 0C12.6607 0 10.7318 2.03445 10.7318 4.5441C10.7318 4.90005 10.769 5.2461 10.8429 5.5791C7.262 5.38875 4.08794 3.582 1.96169 0.82935C1.57816 1.52687 1.37735 2.3149 1.37894 3.11625C1.37894 4.69215 2.13931 6.0831 3.29519 6.8985C2.6094 6.87516 1.93943 6.68057 1.34306 6.3315V6.3873C1.34306 8.5896 2.82838 10.4269 4.80062 10.8427C4.43132 10.9504 4.04917 11.0044 3.66531 11.0029C3.39301 11.0033 3.12134 10.9761 2.85419 10.9219C3.40281 12.7264 4.99269 14.0413 6.87875 14.0764C5.40438 15.2959 3.54588 16.0227 1.52812 16.0227C1.18031 16.0227 0.836875 16.0015 0.5 15.9601C2.40706 17.2471 4.67244 18 7.1045 18C15.0298 18 19.3628 11.0767 19.3628 5.0715C19.3628 4.87395 19.3589 4.6764 19.3514 4.4829C20.1982 3.83687 20.9259 3.04028 21.5 2.13075Z" fill="#F4F5FF"/>
</svg>
