<svg width="14" height="12" viewBox="0 0 14 12" fill="none" xmlns="http://www.w3.org/2000/svg">
<path d="M10.333 0.333496H3.66634C1.66634 0.333496 0.333008 1.3335 0.333008 3.66683V8.3335C0.333008 10.6668 1.66634 11.6668 3.66634 11.6668H10.333C12.333 11.6668 13.6663 10.6668 13.6663 8.3335V3.66683C13.6663 1.3335 12.333 0.333496 10.333 0.333496ZM10.6463 4.3935L8.55968 6.06016C8.11967 6.4135 7.55967 6.58683 6.99967 6.58683C6.43967 6.58683 5.87301 6.4135 5.43967 6.06016L3.35301 4.3935C3.13967 4.22016 3.10634 3.90016 3.27301 3.68683C3.44634 3.4735 3.75967 3.4335 3.97301 3.60683L6.05967 5.2735C6.56634 5.68016 7.42634 5.68016 7.93301 5.2735L10.0197 3.60683C10.233 3.4335 10.553 3.46683 10.7197 3.68683C10.893 3.90016 10.8597 4.22016 10.6463 4.3935Z" fill="white"/>
</svg>
